SplineFontDB: 3.0
FontName: ConnectionII
FullName: Connection II
FamilyName: Connection II
Weight: Regular
Copyright: Copyright (c) 2019, Jasper, Robert Jablonski @ KineticPlasma Fonts, All Rights Reserved.
UComments: "2017-6-18: Created with FontForge (http://fontforge.org)"
Version: 0.2
ItalicAngle: 0
UnderlinePosition: -100
UnderlineWidth: 50
Ascent: 800
Descent: 200
InvalidEm: 0
LayerCount: 2
Layer: 0 0 "Back" 1
Layer: 1 0 "Fore" 0
XUID: [1021 1014 1531800021 17411]
FSType: 0
OS2Version: 0
OS2_WeightWidthSlopeOnly: 0
OS2_UseTypoMetrics: 1
CreationTime: 1497824401
ModificationTime: 1547794717
PfmFamily: 17
TTFWeight: 400
TTFWidth: 5
LineGap: 90
VLineGap: 0
OS2TypoAscent: 0
OS2TypoAOffset: 1
OS2TypoDescent: 0
OS2TypoDOffset: 1
OS2TypoLinegap: 90
OS2WinAscent: 0
OS2WinAOffset: 1
OS2WinDescent: 0
OS2WinDOffset: 1
HheadAscent: 0
HheadAOffset: 1
HheadDescent: 0
HheadDOffset: 1
OS2Vendor: 'KPFi'
Lookup: 258 0 0 "'kern' Horizontal Kerning in Latin lookup 0" { "'kern' Horizontal Kerning in Latin lookup 0-1" [100,10,3] } ['kern' ('DFLT' <'dflt' > 'latn' <'dflt' > ) ]
MarkAttachClasses: 1
DEI: 91125
LangName: 1033 "" "" "" "Connection II" "" "" "" "" "" "" "" "" "" "SIL Open Font License Version 1.1" "http://scripts.sil.org/OFL"
Encoding: UnicodeBmp
UnicodeInterp: none
NameList: AGL For New Fonts
DisplaySize: -72
AntiAlias: 1
FitToEm: 0
WidthSeparation: 100
WinInfo: 48 16 4
BeginPrivate: 0
EndPrivate
TeXData: 1 0 0 524288 262144 174762 0 1048576 174762 783286 444596 497025 792723 393216 433062 380633 303038 157286 324010 404750 52429 2506097 1059062 262144
BeginChars: 65536 101

StartChar: BasePixel
Encoding: 57344 57344 0
Width: 200
VWidth: 0
Flags: W
HStem: 0 100<50 150>
VStem: 50 100<0 100>
LayerCount: 2
Fore
SplineSet
50 0 m 5
 50 100 l 5
 150 100 l 5
 150 0 l 5
 50 0 l 5
EndSplineSet
EndChar

StartChar: zero
Encoding: 48 48 1
Width: 500
VWidth: 0
Flags: W
HStem: 0 100<150 350> 600 100<150 350>
VStem: 50 100<100 600> 150 200<1 100 601 700> 350 100<101 601>
LayerCount: 2
Fore
SplineSet
50 100 m 1xe0
 50 600 l 1
 150 600 l 1
 150 100 l 1
 50 100 l 1xe0
150 0 m 1xd0
 150 100 l 1
 350 101 l 5xe8
 350 1 l 5
 150 0 l 1xd0
150 600 m 1
 150 700 l 1xd0
 350 701 l 5xc8
 350 601 l 5xd0
 150 600 l 1
350 101 m 5xc8
 350 601 l 5xd0
 450 601 l 5
 450 101 l 5
 350 101 l 5xc8
EndSplineSet
EndChar

StartChar: Line5x1
Encoding: 57345 57345 2
Width: 600
VWidth: 0
Flags: W
HStem: 0 100<50 550>
LayerCount: 2
Fore
SplineSet
50 0 m 5
 50 100 l 1
 550 100 l 1
 550 0 l 5
 50 0 l 5
EndSplineSet
EndChar

StartChar: Line3x1
Encoding: 57346 57346 3
Width: 400
VWidth: 0
Flags: W
HStem: 0 100<50 350>
VStem: 50 300<0 100>
LayerCount: 2
Fore
SplineSet
50 0 m 1
 50 100 l 5
 350 100 l 5
 350 0 l 1
 50 0 l 1
EndSplineSet
EndChar

StartChar: one
Encoding: 49 49 4
Width: 400
VWidth: 0
Flags: W
HStem: 0 100<50 150 250 350> 500 100<50 150> 680 20G<150 250>
VStem: 150 100<100 500 600 700>
LayerCount: 2
Fore
SplineSet
50 0 m 5
 50 100 l 1
 150 100 l 1
 150 500 l 1
 50 500 l 1
 50 600 l 1
 150 600 l 1
 150 700 l 1
 250 700 l 1
 250 100 l 1
 350 100 l 1
 350 0 l 5
 50 0 l 5
EndSplineSet
EndChar

StartChar: T
Encoding: 84 84 5
Width: 600
VWidth: 0
Flags: W
HStem: 0 21G<250 350> 600 100<50 250 350 550>
VStem: 250 100<0 600>
LayerCount: 2
Fore
SplineSet
50 600 m 1
 50 700 l 1
 550 700 l 1
 550 600 l 1
 350 600 l 5
 350 0 l 5
 250 0 l 1
 250 600 l 1
 50 600 l 1
EndSplineSet
EndChar

StartChar: period
Encoding: 46 46 6
Width: 200
VWidth: 0
Flags: W
HStem: 0 100<50 150>
VStem: 50 100<0 100>
LayerCount: 2
Fore
SplineSet
50 0 m 5
 50 100 l 5
 150 100 l 5
 150 0 l 5
 50 0 l 5
EndSplineSet
EndChar

StartChar: comma
Encoding: 44 44 7
Width: 300
VWidth: 0
Flags: W
HStem: 0 100<150 250>
VStem: 50 100<-100 0>
LayerCount: 2
Fore
SplineSet
50 -100 m 5
 50 100 l 5
 250 100 l 1
 250 0 l 1
 150 0 l 1
 150 -100 l 1
 50 -100 l 5
EndSplineSet
EndChar

StartChar: colon
Encoding: 58 58 8
Width: 200
VWidth: 0
Flags: W
HStem: 0 100<50 150> 400 100<50 150>
VStem: 50 100<0 100 400 500>
LayerCount: 2
Fore
SplineSet
50 0 m 1
 50 100 l 1
 150 100 l 1
 150 0 l 1
 50 0 l 1
50 400 m 5
 50 500 l 5
 150 500 l 5
 150 400 l 5
 50 400 l 5
EndSplineSet
EndChar

StartChar: semicolon
Encoding: 59 59 9
Width: 300
VWidth: 0
Flags: W
HStem: 0 100<150 250> 400 100<50 150>
VStem: 50 100<-100 0 400 500>
LayerCount: 2
Fore
SplineSet
50 -100 m 5
 50 100 l 5
 250 100 l 5
 250 0 l 5
 150 0 l 5
 150 -100 l 5
 50 -100 l 5
50 400 m 1
 50 500 l 1
 150 500 l 1
 150 400 l 1
 50 400 l 1
EndSplineSet
EndChar

StartChar: hyphen
Encoding: 45 45 10
Width: 600
VWidth: 0
Flags: W
HStem: 300 100<50 550>
LayerCount: 2
Fore
SplineSet
50 300 m 1
 50 400 l 1
 550 400 l 5
 550 300 l 5
 50 300 l 1
EndSplineSet
EndChar

StartChar: equal
Encoding: 61 61 11
Width: 500
VWidth: 0
Flags: W
HStem: 200 100<50 450> 400 100<50 450>
LayerCount: 2
Fore
SplineSet
50 200 m 1
 50 300 l 1
 450 300 l 1
 450 200 l 1
 50 200 l 1
50 400 m 5
 50 500 l 1
 450 500 l 1
 450 400 l 1
 50 400 l 5
EndSplineSet
EndChar

StartChar: U
Encoding: 85 85 12
Width: 600
VWidth: 0
Flags: W
HStem: 0 100<150 450> 680 20G<50 150 450 550>
VStem: 50 100<100 700> 450 100<100 700>
LayerCount: 2
Fore
SplineSet
50 100 m 1
 50 700 l 5
 150 700 l 5
 150 100 l 1
 50 100 l 1
150 0 m 1
 150 100 l 1
 450 100 l 1
 450 0 l 1
 150 0 l 1
450 100 m 1
 450 700 l 5
 550 700 l 5
 550 100 l 1
 450 100 l 1
EndSplineSet
EndChar

StartChar: O
Encoding: 79 79 13
Width: 600
VWidth: 0
Flags: W
HStem: 0 100<150 450> 600 100<150 450>
VStem: 50 100<100 600> 150 300<0 100 600 700> 450 100<100 600>
LayerCount: 2
Fore
SplineSet
50 100 m 1xe0
 50 600 l 1
 150 600 l 1
 150 100 l 1
 50 100 l 1xe0
150 0 m 1xd0
 150 100 l 1xe0
 450 100 l 1
 450 0 l 1
 150 0 l 1xd0
150 600 m 1
 150 700 l 5
 450 700 l 1
 450 600 l 1xd0
 150 600 l 1
450 100 m 1
 450 600 l 1xd0
 550 600 l 1
 550 100 l 1xc8
 450 100 l 1
EndSplineSet
EndChar

StartChar: parenleft
Encoding: 40 40 14
Width: 300
VWidth: 0
Flags: W
HStem: 0 100<150 250> 600 100<150 250>
VStem: 50 100<100 600> 150 100<0 100 600 700>
LayerCount: 2
Fore
SplineSet
50 100 m 1xe0
 50 600 l 1
 150 600 l 1xe0
 150 700 l 1
 250 700 l 1
 250 600 l 1xd0
 150 600 l 1
 150 100 l 1xe0
 250 100 l 1
 250 0 l 1
 150 0 l 1xd0
 150 100 l 1
 50 100 l 1xe0
EndSplineSet
EndChar

StartChar: parenright
Encoding: 41 41 15
Width: 300
VWidth: 0
Flags: W
HStem: 0 100<50 150> 600 100<50 150>
VStem: 50 100<0 100 600 700> 150 100<100 600>
LayerCount: 2
Fore
SplineSet
50 0 m 1xe0
 50 100 l 1
 150 100 l 1
 150 0 l 1
 50 0 l 1xe0
50 600 m 1
 50 700 l 1
 150 700 l 1
 150 600 l 1xe0
 250 600 l 1
 250 100 l 1xd0
 150 100 l 1
 150 600 l 1
 50 600 l 1
EndSplineSet
EndChar

StartChar: exclam
Encoding: 33 33 17
Width: 200
VWidth: 0
Flags: W
HStem: 0 100<50 150> 680 20G<50 150>
VStem: 50 100<0 100 200 700>
LayerCount: 2
Fore
SplineSet
50 0 m 1
 50 100 l 1
 150 100 l 1
 150 0 l 1
 50 0 l 1
50 200 m 1
 50 700 l 5
 150 700 l 5
 150 200 l 1
 50 200 l 1
EndSplineSet
EndChar

StartChar: quotedbl
Encoding: 34 34 18
Width: 500
VWidth: 0
Flags: W
HStem: 500 100<50 150 250 350> 600 100<150 250 350 450>
VStem: 50 100<500 600> 150 100<600 700> 250 100<500 600> 350 100<600 700>
LayerCount: 2
Fore
SplineSet
50 500 m 1xa0
 50 600 l 1
 150 600 l 1
 150 500 l 1
 50 500 l 1xa0
150 600 m 1
 150 700 l 1
 250 700 l 1x50
 250 600 l 1x90
 150 600 l 1
250 500 m 1x88
 250 600 l 1x90
 350 600 l 1
 350 500 l 1
 250 500 l 1x88
350 600 m 1x88
 350 700 l 1
 450 700 l 1
 450 600 l 1x44
 350 600 l 1x88
EndSplineSet
EndChar

StartChar: quotesingle
Encoding: 39 39 19
Width: 300
VWidth: 0
Flags: W
HStem: 500 100<50 150> 600 100<150 250>
VStem: 50 100<500 600> 150 100<600 700>
LayerCount: 2
Fore
SplineSet
50 500 m 1xa0
 50 600 l 1
 150 600 l 1
 150 500 l 1
 50 500 l 1xa0
150 600 m 1
 150 700 l 1
 250 700 l 1
 250 600 l 1x50
 150 600 l 1
EndSplineSet
EndChar

StartChar: numbersign
Encoding: 35 35 20
Width: 600
VWidth: 0
Flags: W
HStem: 0 21G<150 250 350 450> 200 100<50 150 250 350 450 550> 400 100<50 150 250 350 450 550> 680 20G<150 250 350 450>
VStem: 150 100<0 200 300 400 500 700> 350 100<0 200 300 400 500 700>
LayerCount: 2
Fore
SplineSet
50 200 m 1
 50 300 l 1
 150 300 l 1
 150 400 l 1
 50 400 l 1
 50 500 l 1
 150 500 l 1
 150 700 l 1
 250 700 l 1
 250 500 l 1
 350 500 l 1
 350 700 l 1
 450 700 l 1
 450 500 l 1
 550 500 l 5
 550 400 l 5
 450 400 l 1
 450 300 l 1
 550 300 l 5
 550 200 l 5
 450 200 l 1
 450 0 l 1
 350 0 l 1
 350 200 l 1
 250 200 l 1
 250 0 l 1
 150 0 l 1
 150 200 l 1
 50 200 l 1
250 300 m 1
 350 300 l 1
 350 400 l 1
 250 400 l 1
 250 300 l 1
EndSplineSet
EndChar

StartChar: slash
Encoding: 47 47 21
Width: 800
VWidth: 0
Flags: W
HStem: 0 100<50 150> 100 100<150 250> 200 100<250 350> 300 100<350 450> 400 100<450 550> 500 100<550 650> 600 100<650 750>
VStem: 50 100<0 100> 150 100<100 200> 250 100<200 300> 350 100<300 400> 450 100<400 500> 550 100<500 600> 650 100<600 700>
LayerCount: 2
Fore
SplineSet
50 0 m 1x81
 50 100 l 1
 150 100 l 1
 150 0 l 1
 50 0 l 1x81
150 100 m 1
 150 200 l 1
 250 200 l 1
 250 100 l 1x4080
 150 100 l 1
250 200 m 1
 250 300 l 1
 350 300 l 1
 350 200 l 1x2040
 250 200 l 1
350 300 m 1
 350 400 l 1
 450 400 l 1
 450 300 l 1x1020
 350 300 l 1
450 400 m 1
 450 500 l 1
 550 500 l 1
 550 400 l 1x0810
 450 400 l 1
550 500 m 1
 550 600 l 1
 650 600 l 1
 650 500 l 1x0408
 550 500 l 1
650 600 m 1
 650 700 l 1
 750 700 l 1
 750 600 l 1x0204
 650 600 l 1
EndSplineSet
EndChar

StartChar: backslash
Encoding: 92 92 22
Width: 800
VWidth: 0
Flags: W
HStem: 0 100<650 750> 100 100<550 650> 200 100<450 550> 300 100<350 450> 400 100<250 350> 500 100<150 250> 600 100<50 150>
VStem: 50 100<600 700> 150 100<500 600> 250 100<400 500> 350 100<300 400> 450 100<200 300> 550 100<100 200> 650 100<0 100>
LayerCount: 2
Fore
SplineSet
50 600 m 1x03
 50 700 l 1
 150 700 l 1x03
 150 600 l 1x05
 50 600 l 1x03
150 500 m 1x0480
 150 600 l 1x05
 250 600 l 1x0480
 250 500 l 1x0880
 150 500 l 1x0480
250 400 m 1x0840
 250 500 l 1x0880
 350 500 l 1x0840
 350 400 l 1x1040
 250 400 l 1x0840
350 300 m 1x1020
 350 400 l 1x1040
 450 400 l 1x1020
 450 300 l 1x2020
 350 300 l 1x1020
450 200 m 1x2010
 450 300 l 1x2020
 550 300 l 1x2010
 550 200 l 1x4010
 450 200 l 1x2010
550 100 m 1x4008
 550 200 l 1x4010
 650 200 l 1x4008
 650 100 l 1x8008
 550 100 l 1x4008
650 0 m 1x8004
 650 100 l 1x8008
 750 100 l 1
 750 0 l 1
 650 0 l 1x8004
EndSplineSet
EndChar

StartChar: less
Encoding: 60 60 23
Width: 400
VWidth: 0
Flags: W
HStem: 100 100<250 350> 200 100<150 250> 300 100<50 150> 400 100<150 250> 500 100<250 350>
VStem: 50 100<300 400> 150 100<200 300 400 500> 250 100<100 200 500 600>
LayerCount: 2
Fore
SplineSet
50 300 m 1x24
 50 400 l 1
 150 400 l 1x24
 150 300 l 1x44
 50 300 l 1x24
150 200 m 1x42
 150 300 l 1x44
 250 300 l 1x42
 250 200 l 5x82
 150 200 l 1x42
150 400 m 1x24
 150 500 l 1
 250 500 l 1
 250 400 l 1x12
 150 400 l 1x24
250 100 m 1x81
 250 200 l 1x82
 350 200 l 1
 350 100 l 1
 250 100 l 1x81
250 500 m 1x12
 250 600 l 1
 350 600 l 1
 350 500 l 1x09
 250 500 l 1x12
EndSplineSet
EndChar

StartChar: greater
Encoding: 62 62 24
Width: 400
VWidth: 0
Flags: W
HStem: 100 100<50 150> 200 100<150 250> 300 100<250 350> 400 100<150 250> 500 100<50 150>
VStem: 50 100<100 200 500 600> 150 100<200 300 400 500> 250 100<300 400>
LayerCount: 2
Fore
SplineSet
50 100 m 5x84
 50 200 l 5
 150 200 l 5
 150 100 l 5
 50 100 l 5x84
50 500 m 5x0c
 50 600 l 5
 150 600 l 5x0c
 150 500 l 5x14
 50 500 l 5x0c
150 200 m 5x84
 150 300 l 5
 250 300 l 5
 250 200 l 5x42
 150 200 l 5x84
150 400 m 5x12
 150 500 l 5x14
 250 500 l 5x12
 250 400 l 5x22
 150 400 l 5x12
250 300 m 5x42
 250 400 l 5x22
 350 400 l 5
 350 300 l 5x21
 250 300 l 5x42
EndSplineSet
EndChar

StartChar: plus
Encoding: 43 43 25
Width: 600
VWidth: 0
Flags: W
HStem: 300 100<50 250 350 550>
VStem: 250 100<100 300 400 600>
LayerCount: 2
Fore
SplineSet
50 300 m 1
 50 400 l 1
 250 400 l 1
 250 600 l 1
 350 600 l 1
 350 400 l 1
 550 400 l 1
 550 300 l 1
 350 300 l 1
 350 100 l 5
 250 100 l 5
 250 300 l 1
 50 300 l 1
EndSplineSet
EndChar

StartChar: A
Encoding: 65 65 26
Width: 600
VWidth: 0
Flags: W
HStem: 0 21G<50 150 450 550> 200 100<150 450> 500 100<150 250 350 450> 680 20G<250 350>
VStem: 50 100<0 200 300 500> 250 100<600 700> 450 100<0 200 300 500>
CounterMasks: 1 0e
LayerCount: 2
Fore
SplineSet
50 0 m 1
 50 500 l 1
 150 500 l 1
 150 600 l 1
 250 600 l 1
 250 700 l 1
 350 700 l 1
 350 600 l 1
 450 600 l 1
 450 500 l 1
 550 500 l 1
 550 0 l 1
 450 0 l 1
 450 200 l 1
 150 200 l 1
 150 0 l 1
 50 0 l 1
150 300 m 1
 450 300 l 1
 450 500 l 1
 150 500 l 1
 150 300 l 1
EndSplineSet
EndChar

StartChar: dollar
Encoding: 36 36 27
Width: 600
VWidth: 0
Flags: W
HStem: 0 100<150 250 350 450> 100 100<50 150> 300 100<150 250 350 450> 500 100<450 550> 600 100<150 250 350 450>
VStem: 50 100<100 200 400 600> 150 300<0 100 300 400 600 700> 250 100<-100 0 100 300 400 600 700 800> 450 100<100 300 500 600>
LayerCount: 2
Fore
SplineSet
50 100 m 1x64
 50 200 l 1
 150 200 l 1x64
 150 100 l 1
 250 100 l 5
 250 300 l 5xa5
 150 300 l 1xa2
 150 400 l 1
 250 400 l 1
 250 600 l 1
 150 600 l 1
 150 400 l 1
 50 400 l 1
 50 600 l 1
 150 600 l 1xad
 150 700 l 1xaa
 250 700 l 1
 250 800 l 1
 350 800 l 1
 350 700 l 1xa9
 450 700 l 1xaa
 450 600 l 1x32
 350 600 l 1
 350 400 l 1x29
 450 400 l 1
 450 300 l 1x2a
 550 300 l 1
 550 100 l 1x6880
 450 100 l 1
 450 0 l 1xa2
 350 0 l 1
 350 -100 l 1
 250 -100 l 1
 250 0 l 1xa1
 150 0 l 1xa2
 150 100 l 1xa4
 50 100 l 1x64
350 100 m 1xa1
 450 100 l 1
 450 300 l 1xa2
 350 300 l 1
 350 100 l 1xa1
450 500 m 1x3080
 450 600 l 1x32
 550 600 l 1
 550 500 l 1
 450 500 l 1x3080
EndSplineSet
EndChar

StartChar: S
Encoding: 83 83 28
Width: 600
VWidth: 0
Flags: W
HStem: 0 100<150 450> 100 100<50 150> 300 100<150 450> 500 100<450 550> 600 100<150 450>
VStem: 50 100<100 200 400 600> 150 300<0 100 300 400 600 700> 450 100<100 300 500 600>
LayerCount: 2
Fore
SplineSet
50 100 m 1x64
 50 200 l 1
 150 200 l 1x64
 150 100 l 1xa4
 50 100 l 1x64
50 400 m 1
 50 600 l 1
 150 600 l 1x2c
 150 400 l 1
 50 400 l 1
150 0 m 1xa2
 150 100 l 1xa4
 450 100 l 1
 450 0 l 1
 150 0 l 1xa2
150 300 m 1x22
 150 400 l 1x24
 450 400 l 1
 450 300 l 1
 150 300 l 1x22
150 600 m 1x2c
 150 700 l 1
 450 700 l 1x2a
 450 600 l 1x32
 150 600 l 1x2c
450 100 m 1xa2
 450 300 l 1xa2
 550 300 l 1
 550 100 l 1x61
 450 100 l 1xa2
450 500 m 1x31
 450 600 l 1x32
 550 600 l 1
 550 500 l 1
 450 500 l 1x31
EndSplineSet
EndChar

StartChar: percent
Encoding: 37 37 29
Width: 1000
VWidth: 0
Flags: W
HStem: 0 100<150 250 650 850> 100 100<250 350> 200 100<350 450> 300 100<150 350 450 550 650 850> 400 100<550 650> 500 100<650 750> 600 100<150 350 750 850>
VStem: 50 100<400 600> 150 100<0 100> 250 100<100 200> 350 100<200 300 400 600> 450 100<300 400> 550 100<100 300 400 500> 650 100<500 600> 750 100<600 700> 850 100<100 300>
LayerCount: 2
Fore
SplineSet
50 400 m 1x09
 50 600 l 1
 150 600 l 1
 150 400 l 1x13
 50 400 l 1x09
150 0 m 1x8080
 150 100 l 1
 250 100 l 1
 250 0 l 1
 150 0 l 1x8080
150 300 m 1x10a0
 150 400 l 1
 350 400 l 1x1120
 350 300 l 1x2120
 150 300 l 1x10a0
150 600 m 1x0320
 150 700 l 1x0280
 350 700 l 1
 350 600 l 1
 150 600 l 1x0320
250 100 m 1x8080
 250 200 l 1
 350 200 l 1x4040
 350 300 l 1
 450 300 l 1x2020
 450 400 l 1x1020
 550 400 l 1x1010
 550 500 l 1
 650 500 l 1x0808
 650 600 l 1
 750 600 l 1
 750 500 l 1x0404
 650 500 l 1x0808
 650 400 l 1x1008
 550 400 l 1
 550 300 l 1x1010
 450 300 l 1
 450 200 l 1x2020
 350 200 l 1
 350 100 l 1x4040
 250 100 l 1x8080
350 400 m 1x1220
 350 600 l 1
 450 600 l 1
 450 400 l 1
 350 400 l 1x1220
550 100 m 5x4008
 550 300 l 5x5010
 650 300 l 5
 650 100 l 5x9008
 550 100 l 5x4008
650 0 m 5x8005
 650 100 l 5x8008
 850 100 l 5
 850 0 l 5
 650 0 l 5x8005
650 300 m 5x1009
 650 400 l 5
 850 400 l 5
 850 300 l 5
 650 300 l 5x1009
750 600 m 1x0404
 750 700 l 1
 850 700 l 1
 850 600 l 1x0202
 750 600 l 1x0404
850 100 m 5x8001
 850 300 l 5
 950 300 l 5
 950 100 l 5x5001
 850 100 l 5x8001
EndSplineSet
EndChar

StartChar: three
Encoding: 51 51 30
Width: 500
VWidth: 0
Flags: W
HStem: 0 100<150 350> 100 100<50 150> 300 100<150 350> 500 100<50 150> 600 100<150 350>
VStem: 50 100<100 200 500 600> 150 200<0 100 300 400 600 700> 350 100<100 300 400 600>
LayerCount: 2
Fore
SplineSet
50 100 m 1x64
 50 200 l 1
 150 200 l 1x64
 150 100 l 1xa4
 350 100 l 5
 350 0 l 5
 150 0 l 1xa2
 150 100 l 1xa4
 50 100 l 1x64
50 500 m 1x34
 50 600 l 1
 150 600 l 1
 150 500 l 1
 50 500 l 1x34
150 300 m 1xa2
 150 400 l 1
 350 400 l 5
 350 300 l 5xa2
 450 300 l 5
 450 100 l 5x61
 350 100 l 5
 350 300 l 5
 150 300 l 1xa2
150 600 m 1x34
 150 700 l 1
 350 700 l 5
 350 600 l 5x2a
 150 600 l 1x34
350 400 m 5
 350 600 l 5x2a
 450 600 l 5
 450 400 l 5x29
 350 400 l 5
EndSplineSet
EndChar

StartChar: two
Encoding: 50 50 31
Width: 500
VWidth: 0
Flags: W
HStem: 0 100<150 450> 200 100<150 250> 300 100<250 350> 500 100<50 150> 600 100<150 350>
VStem: 50 100<100 200 500 600> 150 100<200 300> 250 100<300 400> 350 100<400 600>
LayerCount: 2
Fore
SplineSet
50 0 m 1xc480
 50 200 l 1
 150 200 l 1
 150 100 l 1
 450 100 l 5
 450 0 l 5
 50 0 l 1xc480
50 500 m 1x9480
 50 600 l 1
 150 600 l 1x9480
 150 700 l 1
 350 700 l 5
 350 600 l 5
 450 600 l 5
 450 400 l 5xaa80
 350 400 l 5xa9
 350 600 l 5xa880
 150 600 l 1
 150 500 l 1
 50 500 l 1x9480
150 200 m 1xc4
 150 300 l 1
 250 300 l 1
 250 200 l 1xc2
 150 200 l 1xc4
250 300 m 1
 250 400 l 1
 350 400 l 5
 350 300 l 5xa1
 250 300 l 1
EndSplineSet
EndChar

StartChar: four
Encoding: 52 52 32
Width: 500
VWidth: 0
Flags: W
HStem: 0 21G<250 350> 300 100<150 250 350 450> 480 20G<50 150> 500 100<150 250> 680 20G<250 350>
VStem: 50 100<400 500> 250 100<0 300 400 500 600 700>
LayerCount: 2
Fore
SplineSet
50 300 m 1xde
 50 500 l 1
 150 500 l 1xee
 150 400 l 1
 250 400 l 1
 250 500 l 1xde
 150 500 l 1xee
 150 600 l 1
 250 600 l 1
 250 700 l 1
 350 700 l 1
 350 400 l 1
 450 400 l 1
 450 300 l 1
 350 300 l 1
 350 0 l 1
 250 0 l 1
 250 300 l 1
 50 300 l 1xde
EndSplineSet
EndChar

StartChar: seven
Encoding: 55 55 33
Width: 500
VWidth: 0
Flags: W
HStem: 0 21G<150 250> 600 100<50 350>
VStem: 150 100<0 200> 250 100<200 400> 350 100<400 600>
LayerCount: 2
Fore
SplineSet
50 600 m 1xc8
 50 700 l 1
 450 700 l 5
 450 400 l 5xc8
 350 400 l 1
 350 200 l 1xd0
 250 200 l 1xe0
 250 400 l 1
 350 400 l 1xd0
 350 600 l 1
 50 600 l 1xc8
150 0 m 1xe0
 150 200 l 1
 250 200 l 1
 250 0 l 1
 150 0 l 1xe0
EndSplineSet
EndChar

StartChar: ampersand
Encoding: 38 38 34
Width: 700
VWidth: 0
Flags: W
HStem: 0 100<150 450> 100 200<50 150 450 550> 200 100<550 650> 300 100<150 250> 500 100<450 550> 600 100<150 450>
VStem: 50 100<100 300 400 600> 150 300<0 100 600 700> 150 100<300 400> 450 100<100 200 500 600>
LayerCount: 2
Fore
SplineSet
50 100 m 1x42
 50 300 l 1
 150 300 l 1x42
 150 100 l 1x82
 450 100 l 1
 450 0 l 1
 150 0 l 1x81
 150 100 l 1x82
 50 100 l 1x42
50 400 m 1x12
 50 600 l 1
 150 600 l 1
 150 400 l 1x16
 250 400 l 1
 250 300 l 1x1480
 150 300 l 1x42
 150 400 l 1
 50 400 l 1x12
150 600 m 1
 150 700 l 1
 450 700 l 1x05
 450 600 l 1x09
 150 600 l 1
450 100 m 1x81
 450 300 l 1x4040
 650 300 l 1
 650 200 l 1
 550 200 l 1x2040
 550 100 l 1x4040
 450 100 l 1x81
450 500 m 1x0840
 450 600 l 1x09
 550 600 l 1
 550 500 l 1
 450 500 l 1x0840
EndSplineSet
EndChar

StartChar: five
Encoding: 53 53 35
Width: 500
VWidth: 0
Flags: W
HStem: 0 100<50 350> 300 100<150 350> 600 100<150 450>
VStem: 50 100<400 600> 350 100<100 300>
CounterMasks: 1 e0
LayerCount: 2
Fore
SplineSet
50 0 m 1
 50 100 l 1
 350 100 l 5
 350 300 l 5
 450 300 l 5
 450 100 l 5
 350 100 l 5
 350 0 l 5
 50 0 l 1
50 400 m 1
 50 700 l 1
 450 700 l 5
 450 600 l 5
 150 600 l 1
 150 400 l 1
 350 400 l 5
 350 300 l 5
 150 300 l 1
 150 400 l 1
 50 400 l 1
EndSplineSet
EndChar

StartChar: nine
Encoding: 57 57 36
Width: 500
VWidth: 0
Flags: W
HStem: 0 100<150 350> 100 100<50 150> 300 100<150 350> 600 100<150 350>
VStem: 50 100<100 200 400 600> 150 200<0 100 600 700> 350 100<100 300 400 600>
LayerCount: 2
Fore
SplineSet
50 100 m 5x78
 50 200 l 5
 150 200 l 5x78
 150 100 l 5xb8
 50 100 l 5x78
50 400 m 5
 50 600 l 5
 150 600 l 5
 150 400 l 5
 50 400 l 5
150 0 m 5xb4
 150 100 l 5xb8
 350 100 l 1xb4
 350 300 l 1xb2
 150 300 l 5xb4
 150 400 l 5
 350 400 l 1xba
 350 600 l 1xb4
 450 600 l 1
 450 100 l 1x72
 350 100 l 1
 350 0 l 1
 150 0 l 5xb4
150 600 m 5
 150 700 l 5
 350 700 l 1
 350 600 l 1x34
 150 600 l 5
EndSplineSet
EndChar

StartChar: six
Encoding: 54 54 37
Width: 500
VWidth: 0
Flags: W
HStem: 0 100<150 350> 300 100<150 350> 500 100<350 450> 600 100<150 350>
VStem: 50 100<100 300 400 600> 150 200<0 100 600 700> 350 100<100 300 500 600>
LayerCount: 2
Fore
SplineSet
50 100 m 1xda
 50 600 l 1
 150 600 l 1xda
 150 700 l 1
 350 700 l 5xd4
 350 600 l 5xe4
 150 600 l 1
 150 400 l 1
 350 400 l 5
 350 300 l 5
 150 300 l 1
 150 100 l 1
 50 100 l 1xda
150 0 m 1xc4
 150 100 l 1xc8
 350 100 l 5
 350 0 l 5
 150 0 l 1xc4
350 100 m 5xc4
 350 300 l 5
 450 300 l 5
 450 100 l 5xc2
 350 100 l 5xc4
350 500 m 5xe2
 350 600 l 5xe4
 450 600 l 5
 450 500 l 5
 350 500 l 5xe2
EndSplineSet
EndChar

StartChar: eight
Encoding: 56 56 38
Width: 500
VWidth: 0
Flags: W
HStem: 0 100<150 350> 100 200<50 150 350 450> 300 100<150 350> 400 200<50 150 350 450> 600 100<150 350>
VStem: 50 100<100 300 400 600> 150 200<0 100 300 400 600 700> 350 100<100 300 400 600>
LayerCount: 2
Fore
SplineSet
50 100 m 1x44
 50 300 l 1
 150 300 l 1x44
 150 100 l 1x84
 50 100 l 1x44
50 400 m 1x14
 50 600 l 1
 150 600 l 1x14
 150 700 l 1
 350 700 l 5x0a
 350 600 l 5x12
 450 600 l 5
 450 400 l 5x11
 350 400 l 5x22
 350 600 l 5x12
 150 600 l 1x14
 150 400 l 1x24
 350 400 l 5x22
 350 300 l 5x42
 150 300 l 1x44
 150 400 l 1x24
 50 400 l 1x14
150 0 m 1x82
 150 100 l 1x84
 350 100 l 5
 350 0 l 5
 150 0 l 1x82
350 100 m 5x82
 350 300 l 5x42
 450 300 l 5
 450 100 l 5x41
 350 100 l 5x82
EndSplineSet
EndChar

StartChar: Q
Encoding: 81 81 39
Width: 700
VWidth: 0
Flags: W
HStem: 0 100<150 450> 600 100<150 450>
VStem: 50 100<100 600> 450 100<100 600> 550 100<-100 0>
LayerCount: 2
Fore
SplineSet
50 100 m 1xe0
 50 600 l 1
 150 600 l 1
 150 100 l 1
 50 100 l 1xe0
150 0 m 1
 150 100 l 1
 450 100 l 1
 450 600 l 1
 150 600 l 1
 150 700 l 1
 450 700 l 1
 450 600 l 1
 550 600 l 1
 550 100 l 1xf0
 650 100 l 5
 650 -100 l 5
 550 -100 l 5
 550 0 l 5xe8
 150 0 l 1
EndSplineSet
EndChar

StartChar: B
Encoding: 66 66 40
Width: 600
VWidth: 0
Flags: W
HStem: 0 100<150 450> 400 100<150 450> 500 100<450 550> 600 100<150 450>
VStem: 50 400<0 100 400 500 600 700> 50 100<100 400 500 600> 450 100<100 400 500 600>
LayerCount: 2
Fore
SplineSet
50 0 m 1xd8
 50 700 l 1
 450 700 l 1xd8
 450 600 l 1xa8
 550 600 l 1
 550 500 l 1xa2
 450 500 l 1xc8
 450 600 l 1xa8
 150 600 l 1
 150 500 l 1xd4
 450 500 l 1
 450 400 l 1xd8
 550 400 l 1
 550 100 l 1xd2
 450 100 l 1
 450 400 l 1xd8
 150 400 l 1
 150 100 l 1xd4
 450 100 l 1
 450 0 l 1
 50 0 l 1xd8
EndSplineSet
EndChar

StartChar: asterisk
Encoding: 42 42 41
Width: 400
VWidth: 0
Flags: W
HStem: 200 100<50 150 250 350> 300 100<150 250> 400 100<50 150 250 350>
VStem: 50 100<200 300 400 500> 150 100<300 400> 250 100<200 300 400 500>
LayerCount: 2
Fore
SplineSet
50 200 m 1x90
 50 300 l 1
 150 300 l 1x90
 150 400 l 1x50
 250 400 l 1x48
 250 300 l 1x88
 150 300 l 1
 150 200 l 1
 50 200 l 1x90
50 400 m 1x30
 50 500 l 1
 150 500 l 1x30
 150 400 l 1x50
 50 400 l 1x30
250 200 m 1x84
 250 300 l 1x88
 350 300 l 1
 350 200 l 1
 250 200 l 1x84
250 400 m 1x48
 250 500 l 1
 350 500 l 1
 350 400 l 1x24
 250 400 l 1x48
EndSplineSet
EndChar

StartChar: E
Encoding: 69 69 42
Width: 500
VWidth: 0
Flags: W
HStem: 0 100<150 450> 300 100<150 350> 600 100<150 450>
VStem: 50 100<100 300 400 600>
CounterMasks: 1 e0
LayerCount: 2
Fore
SplineSet
50 0 m 1
 50 700 l 1
 450 700 l 5
 450 600 l 5
 150 600 l 1
 150 400 l 1
 350 400 l 5
 350 300 l 5
 150 300 l 1
 150 100 l 1
 450 100 l 5
 450 0 l 5
 50 0 l 1
EndSplineSet
EndChar

StartChar: F
Encoding: 70 70 43
Width: 500
VWidth: 0
Flags: W
HStem: 0 21G<50 150> 300 100<150 350> 600 100<150 450>
VStem: 50 100<0 300 400 600>
LayerCount: 2
Fore
SplineSet
50 0 m 1
 50 700 l 1
 450 700 l 5
 450 600 l 5
 150 600 l 1
 150 400 l 1
 350 400 l 5
 350 300 l 5
 150 300 l 1
 150 0 l 1
 50 0 l 1
EndSplineSet
EndChar

StartChar: I
Encoding: 73 73 44
Width: 200
VWidth: 0
Flags: W
HStem: 0 21G<50 150> 680 20G<50 150>
VStem: 50 100<0 700>
LayerCount: 2
Fore
SplineSet
50 0 m 5
 50 700 l 5
 150 700 l 1
 150 0 l 1
 50 0 l 5
EndSplineSet
EndChar

StartChar: L
Encoding: 76 76 45
Width: 500
VWidth: 0
Flags: W
HStem: 0 100<150 450> 680 20G<50 150>
VStem: 50 100<100 700>
LayerCount: 2
Fore
SplineSet
50 0 m 1
 50 700 l 1
 150 700 l 1
 150 100 l 1
 450 100 l 1
 450 0 l 1
 50 0 l 1
EndSplineSet
EndChar

StartChar: C
Encoding: 67 67 46
Width: 600
VWidth: 0
Flags: W
HStem: 0 100<150 450> 100 100<450 550> 500 100<450 550> 600 100<150 450>
VStem: 50 100<100 600> 150 300<0 100 600 700> 450 100<100 200 500 600>
LayerCount: 2
Fore
SplineSet
50 100 m 1x48
 50 600 l 1
 150 600 l 1x58
 150 700 l 1
 450 700 l 1x54
 450 600 l 1x24
 150 600 l 1
 150 100 l 1x98
 450 100 l 1
 450 0 l 1
 150 0 l 1x94
 150 100 l 1x98
 50 100 l 1x48
450 100 m 1x84
 450 200 l 1
 550 200 l 1
 550 100 l 1x42
 450 100 l 1x84
450 500 m 1x22
 450 600 l 1x24
 550 600 l 1
 550 500 l 1
 450 500 l 1x22
EndSplineSet
EndChar

StartChar: D
Encoding: 68 68 47
Width: 600
VWidth: 0
Flags: W
HStem: 0 100<150 450> 600 100<150 450>
VStem: 50 100<100 600> 450 100<100 600>
LayerCount: 2
Fore
SplineSet
50 0 m 5
 50 700 l 1
 450 700 l 1
 450 600 l 1
 550 600 l 1
 550 100 l 1
 450 100 l 1
 450 600 l 1
 150 600 l 1
 150 100 l 1
 450 100 l 1
 450 0 l 5
 50 0 l 5
EndSplineSet
EndChar

StartChar: G
Encoding: 71 71 48
Width: 600
VWidth: 0
Flags: W
HStem: 0 100<150 450> 300 100<250 450> 500 100<450 550> 600 100<150 450>
VStem: 50 100<100 600> 150 300<0 100 600 700> 450 100<100 300 500 600>
LayerCount: 2
Fore
SplineSet
50 100 m 1xd8
 50 600 l 1
 150 600 l 1xd8
 150 700 l 1
 450 700 l 1xd4
 450 600 l 1xe4
 150 600 l 1
 150 100 l 1xd8
 450 100 l 1xd4
 450 300 l 1
 250 300 l 1
 250 400 l 1
 550 400 l 1
 550 100 l 1xd2
 450 100 l 1
 450 0 l 1
 150 0 l 1xd4
 150 100 l 1
 50 100 l 1xd8
450 500 m 5xe2
 450 600 l 5xe4
 550 600 l 5
 550 500 l 5
 450 500 l 5xe2
EndSplineSet
EndChar

StartChar: J
Encoding: 74 74 49
Width: 500
VWidth: 0
Flags: W
HStem: 0 100<150 350> 100 100<50 150> 680 20G<350 450>
VStem: 50 100<100 200> 350 100<100 700>
LayerCount: 2
Fore
SplineSet
50 100 m 1x78
 50 200 l 1
 150 200 l 1x78
 150 100 l 1xb8
 50 100 l 1x78
150 0 m 1xb8
 150 100 l 1
 350 100 l 1
 350 0 l 1
 150 0 l 1xb8
350 100 m 1
 350 700 l 1
 450 700 l 1
 450 100 l 1x78
 350 100 l 1
EndSplineSet
EndChar

StartChar: H
Encoding: 72 72 50
Width: 600
VWidth: 0
Flags: W
HStem: 0 21G<50 150 450 550> 300 100<150 450> 680 20G<50 150 450 550>
VStem: 50 100<0 300 400 700> 450 100<0 300 400 700>
LayerCount: 2
Fore
SplineSet
50 0 m 1
 50 700 l 1
 150 700 l 1
 150 400 l 1
 450 400 l 1
 450 700 l 1
 550 700 l 1
 550 0 l 1
 450 0 l 1
 450 300 l 1
 150 300 l 1
 150 0 l 1
 50 0 l 1
EndSplineSet
EndChar

StartChar: bracketleft
Encoding: 91 91 51
Width: 300
VWidth: 0
Flags: W
HStem: 0 100<150 250> 600 100<150 250>
VStem: 50 200<0 100 600 700> 50 100<100 600>
LayerCount: 2
Fore
SplineSet
50 0 m 1xe0
 50 700 l 1
 250 700 l 5
 250 600 l 5xe0
 150 600 l 1
 150 100 l 1xd0
 250 100 l 5
 250 0 l 5
 50 0 l 1xe0
EndSplineSet
EndChar

StartChar: bracketright
Encoding: 93 93 52
Width: 300
VWidth: 0
Flags: W
HStem: 0 100<50 150> 600 100<50 150>
VStem: 50 200<0 100 600 700> 150 100<100 600>
LayerCount: 2
Fore
SplineSet
50 0 m 1xe0
 50 100 l 1xe0
 150 100 l 5
 150 600 l 5xd0
 50 600 l 1
 50 700 l 1
 250 700 l 5
 250 0 l 5
 50 0 l 1xe0
EndSplineSet
EndChar

StartChar: grave
Encoding: 96 96 53
Width: 300
VWidth: 0
Flags: W
HStem: 500 100<150 250> 600 100<50 150>
VStem: 50 100<600 700> 150 100<500 600>
LayerCount: 2
Fore
SplineSet
50 600 m 1x60
 50 700 l 1
 150 700 l 1x60
 150 600 l 1xa0
 50 600 l 1x60
150 500 m 5x90
 150 600 l 5xa0
 250 600 l 5
 250 500 l 5
 150 500 l 5x90
EndSplineSet
EndChar

StartChar: underscore
Encoding: 95 95 54
Width: 600
VWidth: 0
Flags: W
HStem: -100 100<50 550>
LayerCount: 2
Fore
SplineSet
50 0 m 5
 550 0 l 5
 550 -100 l 5
 50 -100 l 5
 50 0 l 5
EndSplineSet
EndChar

StartChar: Z
Encoding: 90 90 55
Width: 600
VWidth: 0
Flags: W
HStem: 0 100<150 550> 200 100<150 250> 300 100<250 350> 400 100<350 450> 500 21G<450 550> 600 100<50 450>
VStem: 50 100<100 200> 150 100<200 300> 250 100<300 400> 350 100<400 500> 450 100<500 600>
LayerCount: 2
Fore
SplineSet
50 0 m 5xc620
 50 200 l 5
 150 200 l 1
 150 100 l 1
 550 100 l 1
 550 0 l 1
 50 0 l 5xc620
50 600 m 1
 50 700 l 1
 550 700 l 1
 550 500 l 1x8e20
 450 500 l 1x9440
 450 600 l 1
 50 600 l 1
150 200 m 1xc6
 150 300 l 1
 250 300 l 1
 250 200 l 1xc5
 150 200 l 1xc6
250 300 m 1
 250 400 l 1
 350 400 l 1
 350 300 l 1xa480
 250 300 l 1
350 400 m 1
 350 500 l 1
 450 500 l 1
 450 400 l 1x9440
 350 400 l 1
EndSplineSet
EndChar

StartChar: V
Encoding: 86 86 56
Width: 600
VWidth: 0
Flags: W
HStem: 0 21G<250 350> 200 200<150 250 350 450> 400 300<50 150 450 550>
VStem: 50 100<400 700> 150 100<200 400> 250 100<0 200> 350 100<200 400> 450 100<400 700>
LayerCount: 2
Fore
SplineSet
50 400 m 1xb0
 50 700 l 1
 150 700 l 1xb0
 150 400 l 1xd0
 50 400 l 1xb0
150 200 m 1xc8
 150 400 l 1xd0
 250 400 l 1
 250 200 l 1
 150 200 l 1xc8
250 0 m 1xc4
 250 200 l 1xc8
 350 200 l 1xc4
 350 400 l 1
 450 400 l 1
 450 200 l 1xc2
 350 200 l 1
 350 0 l 1
 250 0 l 1xc4
450 400 m 1xc2
 450 700 l 1
 550 700 l 1
 550 400 l 1xa1
 450 400 l 1xc2
EndSplineSet
EndChar

StartChar: W
Encoding: 87 87 57
Width: 1000
VWidth: 0
Flags: W
HStem: 0 200<250 350 650 750> 200 200<150 250 350 450 550 650 750 850> 400 300<50 150 450 550 850 950>
VStem: 50 100<400 700> 150 100<200 400> 250 100<0 200> 350 100<200 400> 450 100<400 700> 550 100<200 400> 650 100<0 200> 750 100<200 400> 850 100<400 700>
LayerCount: 2
Fore
SplineSet
50 400 m 1x30
 50 700 l 1
 150 700 l 1x30
 150 400 l 1x50
 250 400 l 1x48
 250 200 l 1x88
 350 200 l 1
 350 0 l 1
 250 0 l 1x84
 250 200 l 1x88
 150 200 l 1x48
 150 400 l 1x50
 50 400 l 1x30
350 200 m 1x84
 350 400 l 1
 450 400 l 1
 450 200 l 1x42
 350 200 l 1x84
450 400 m 1
 450 700 l 1
 550 700 l 1x21
 550 400 l 1x41
 450 400 l 1
550 200 m 1x4080
 550 400 l 1x41
 650 400 l 1x4080
 650 200 l 1x8080
 550 200 l 1x4080
650 0 m 1x8040
 650 200 l 1x8080
 750 200 l 1x8040
 750 400 l 1
 850 400 l 1
 850 200 l 1x4020
 750 200 l 1
 750 0 l 1
 650 0 l 1x8040
850 400 m 1x4020
 850 700 l 1
 950 700 l 1
 950 400 l 1x2010
 850 400 l 1x4020
EndSplineSet
EndChar

StartChar: P
Encoding: 80 80 58
Width: 600
VWidth: 0
Flags: W
HStem: 0 21G<50 150> 300 100<150 450> 600 100<150 450>
VStem: 50 100<0 300 400 600> 450 100<400 600>
LayerCount: 2
Fore
SplineSet
50 0 m 1
 50 700 l 1
 450 700 l 1
 450 600 l 1
 150 600 l 1
 150 400 l 1
 450 400 l 1
 450 300 l 1
 150 300 l 1
 150 0 l 1
 50 0 l 1
450 400 m 1
 450 600 l 1
 550 600 l 1
 550 400 l 1
 450 400 l 1
EndSplineSet
EndChar

StartChar: R
Encoding: 82 82 59
Width: 600
VWidth: 0
Flags: W
HStem: 0 21G<50 150 450 550> 300 100<150 350> 600 100<150 450>
VStem: 50 100<0 300 400 600> 350 100<200 300> 450 100<0 200 400 600>
LayerCount: 2
Fore
SplineSet
50 0 m 1xf8
 50 700 l 1
 450 700 l 1
 450 600 l 1
 150 600 l 1
 150 400 l 1
 450 400 l 5xf4
 450 200 l 5xf8
 550 200 l 1
 550 0 l 1
 450 0 l 1xf4
 450 200 l 1
 350 200 l 1
 350 300 l 1
 150 300 l 1
 150 0 l 1
 50 0 l 1xf8
450 400 m 1
 450 600 l 1
 550 600 l 1
 550 400 l 1
 450 400 l 1
EndSplineSet
EndChar

StartChar: Y
Encoding: 89 89 60
Width: 600
VWidth: 0
Flags: W
HStem: 0 21G<250 350> 300 200<150 250 350 450> 500 200<50 150 450 550>
VStem: 50 100<500 700> 150 100<300 500> 250 100<0 300> 350 100<300 500> 450 100<500 700>
LayerCount: 2
Fore
SplineSet
50 500 m 1xb0
 50 700 l 1
 150 700 l 1xb0
 150 500 l 1xd0
 50 500 l 1xb0
150 300 m 1xc8
 150 500 l 1xd0
 250 500 l 1
 250 300 l 1
 150 300 l 1xc8
250 0 m 1xc4
 250 300 l 1xc8
 350 300 l 1xc4
 350 500 l 1
 450 500 l 1
 450 300 l 1xc2
 350 300 l 1
 350 0 l 1
 250 0 l 1xc4
450 500 m 1xc2
 450 700 l 1
 550 700 l 1
 550 500 l 1xa1
 450 500 l 1xc2
EndSplineSet
EndChar

StartChar: X
Encoding: 88 88 61
Width: 600
VWidth: 0
Flags: W
HStem: 0 200<50 150 450 550> 200 100<150 250 350 450> 300 100<250 350> 400 100<150 250 350 450> 500 200<50 150 450 550>
VStem: 50 100<0 200 500 700> 150 100<200 300 400 500> 250 100<300 400> 350 100<200 300 400 500> 450 100<0 200 500 700>
LayerCount: 2
Fore
SplineSet
50 0 m 1x84
 50 200 l 1
 150 200 l 1
 150 0 l 1
 50 0 l 1x84
50 500 m 1x0c
 50 700 l 1
 150 700 l 1x0c
 150 500 l 1x14
 250 500 l 1x12
 250 400 l 1x22
 150 400 l 1x12
 150 500 l 1x14
 50 500 l 1x0c
150 200 m 1x84
 150 300 l 1
 250 300 l 1
 250 200 l 1x42
 150 200 l 1x84
250 300 m 1
 250 400 l 1x22
 350 400 l 1x21
 350 300 l 1x41
 250 300 l 1
350 200 m 1x4080
 350 300 l 1x41
 450 300 l 1x4080
 450 200 l 1x8080
 350 200 l 1x4080
350 400 m 1x21
 350 500 l 1
 450 500 l 1
 450 400 l 1x1080
 350 400 l 1x21
450 0 m 1x8040
 450 200 l 1x8080
 550 200 l 1
 550 0 l 1
 450 0 l 1x8040
450 500 m 1x1080
 450 700 l 5
 550 700 l 5
 550 500 l 1x0840
 450 500 l 1x1080
EndSplineSet
EndChar

StartChar: N
Encoding: 78 78 62
Width: 600
VWidth: 0
Flags: W
HStem: 0 21G<50 150 450 550> 300 110<250 350> 680 20G<50 150 450 550>
VStem: 50 200<410 600> 50 100<0 410 600 700> 250 100<300 410> 350 200<100 300> 450 100<0 100 300 700>
LayerCount: 2
Fore
SplineSet
50 0 m 1xe8
 50 700 l 1
 150 700 l 1
 150 600 l 1xe8
 250 600 l 1
 250 410 l 1xf0
 150 410 l 1
 150 0 l 1
 50 0 l 1xe8
250 300 m 1xe4
 250 410 l 1xf0
 350 410 l 1
 350 300 l 1
 250 300 l 1xe4
350 100 m 1xe2
 350 300 l 1
 450 300 l 1
 450 700 l 1
 550 700 l 1
 550 0 l 1
 450 0 l 1
 450 100 l 1xe5
 350 100 l 1xe2
EndSplineSet
EndChar

StartChar: M
Encoding: 77 77 63
Width: 800
VWidth: 0
Flags: W
HStem: 0 21G<50 150 650 750> 200 300<250 350 450 550> 500 200<150 250 550 650>
VStem: 50 100<0 500> 150 100<600 700> 250 100<300 500> 350 100<100 200> 450 100<300 500> 550 100<600 700> 650 100<0 500>
LayerCount: 2
Fore
SplineSet
50 0 m 1xb4
 50 600 l 1xb4
 150 600 l 1
 150 700 l 1
 250 700 l 1xa8
 250 500 l 1xc4
 150 500 l 1
 150 0 l 1
 50 0 l 1xb4
250 200 m 5xc4
 250 500 l 1
 350 500 l 1
 350 300 l 5
 450 300 l 5
 450 500 l 1
 550 500 l 1xc5
 550 200 l 5
 450 200 l 5
 450 100 l 1
 350 100 l 1
 350 200 l 5xc280
 250 200 l 5xc4
550 500 m 1
 550 700 l 1
 650 700 l 1
 650 600 l 1xa080
 750 600 l 1
 750 0 l 1
 650 0 l 1
 650 500 l 1xa040
 550 500 l 1
EndSplineSet
EndChar

StartChar: K
Encoding: 75 75 64
Width: 600
VWidth: 0
Flags: W
HStem: 0 100<450 550> 100 100<350 450> 200 100<250 350> 400 100<250 350> 500 100<350 450> 600 100<450 550>
VStem: 50 100<0 300 400 700> 250 100<200 300 400 500> 350 100<100 200 500 600> 450 100<0 100 600 700>
LayerCount: 2
Fore
SplineSet
50 0 m 1xa3
 50 700 l 1
 150 700 l 1
 150 400 l 1
 250 400 l 1
 250 500 l 1
 350 500 l 1xb7
 350 600 l 1
 450 600 l 1x0a80
 450 700 l 1
 550 700 l 1
 550 600 l 1x0640
 450 600 l 1
 450 500 l 1x0a80
 350 500 l 1
 350 400 l 1
 250 400 l 1
 250 300 l 1
 350 300 l 1x33
 350 200 l 1x43
 450 200 l 1x4280
 450 100 l 1x8280
 550 100 l 1
 550 0 l 1
 450 0 l 1x8240
 450 100 l 1x8280
 350 100 l 1x4280
 350 200 l 1x43
 250 200 l 1
 250 300 l 1
 150 300 l 1
 150 0 l 1
 50 0 l 1xa3
EndSplineSet
EndChar

StartChar: asciicircum
Encoding: 94 94 65
Width: 600
VWidth: 0
Flags: W
HStem: 400 100<50 150 450 550> 500 100<150 250 350 450> 600 100<250 350>
VStem: 50 100<400 500> 150 100<500 600> 250 100<600 700> 350 100<500 600> 450 100<400 500>
LayerCount: 2
Fore
SplineSet
50 400 m 1x90
 50 500 l 1
 150 500 l 1
 150 400 l 1
 50 400 l 1x90
150 500 m 1
 150 600 l 1
 250 600 l 1
 250 500 l 1x48
 150 500 l 1
250 600 m 1
 250 700 l 5
 350 700 l 5x24
 350 600 l 1x44
 250 600 l 1
350 500 m 1x42
 350 600 l 1x44
 450 600 l 1x42
 450 500 l 1x82
 350 500 l 1x42
450 400 m 1x81
 450 500 l 1x82
 550 500 l 1
 550 400 l 1
 450 400 l 1x81
EndSplineSet
EndChar

StartChar: bar
Encoding: 124 124 66
Width: 200
VWidth: 0
Flags: W
HStem: 680 20G<50 150>
VStem: 50 100<-100 700>
LayerCount: 2
Fore
SplineSet
50 -100 m 1
 50 700 l 5
 150 700 l 5
 150 -100 l 1
 50 -100 l 1
EndSplineSet
EndChar

StartChar: Euro
Encoding: 8364 8364 67
Width: 600
VWidth: 0
Flags: W
HStem: 0 100<250 550> 200 100<50 150 250 450> 400 100<50 150 250 450> 600 100<250 550>
VStem: 150 100<100 200 300 400 500 600> 250 300<0 100 600 700>
LayerCount: 2
Fore
SplineSet
50 200 m 1xf8
 50 300 l 1
 150 300 l 1
 150 400 l 1
 50 400 l 1
 50 500 l 1
 150 500 l 1
 150 600 l 1
 250 600 l 1xf8
 250 700 l 1
 550 700 l 1
 550 600 l 1xf4
 250 600 l 1
 250 500 l 1
 450 500 l 5
 450 400 l 5
 250 400 l 1
 250 300 l 1
 450 300 l 5
 450 200 l 5
 250 200 l 1
 250 100 l 1xf8
 550 100 l 1
 550 0 l 1
 250 0 l 1xf4
 250 100 l 1
 150 100 l 1
 150 200 l 1
 50 200 l 1xf8
EndSplineSet
EndChar

StartChar: uni20BD
Encoding: 8381 8381 68
Width: 600
VWidth: 0
Flags: W
HStem: 0 21G<150 250> 100 100<50 150 250 350> 300 100<50 150 250 450> 600 100<250 450>
VStem: 150 100<0 100 200 300 400 600> 450 100<400 600>
LayerCount: 2
Fore
SplineSet
50 100 m 1
 50 200 l 1
 150 200 l 1
 150 300 l 1
 50 300 l 1
 50 400 l 1
 150 400 l 1
 150 700 l 1
 450 700 l 5
 450 600 l 5
 550 600 l 5
 550 400 l 5
 450 400 l 5
 450 600 l 5
 250 600 l 1
 250 400 l 1
 450 400 l 5
 450 300 l 5
 250 300 l 1
 250 200 l 1
 350 200 l 5
 350 100 l 5
 250 100 l 1
 250 0 l 1
 150 0 l 1
 150 100 l 1
 50 100 l 1
EndSplineSet
EndChar

StartChar: sterling
Encoding: 163 163 69
Width: 700
VWidth: 0
Flags: W
HStem: 0 100<50 150 250 550> 200 100<50 150 250 450> 500 21G<450 550> 600 100<250 450>
VStem: 150 100<100 200 300 600> 450 100<500 600> 550 100<100 200>
LayerCount: 2
Fore
SplineSet
50 0 m 1xfa
 50 100 l 1
 150 100 l 1
 150 200 l 1
 50 200 l 1
 50 300 l 1
 150 300 l 1
 150 600 l 1
 250 600 l 1
 250 700 l 1
 550 700 l 1xfa
 550 500 l 1
 450 500 l 1
 450 600 l 1
 250 600 l 1
 250 300 l 1
 450 300 l 1
 450 200 l 1xfc
 250 200 l 1
 250 100 l 1
 550 100 l 1
 550 200 l 1
 650 200 l 1
 650 0 l 1
 50 0 l 1xfa
EndSplineSet
EndChar

StartChar: question
Encoding: 63 63 70
Width: 500
VWidth: 0
Flags: W
HStem: 0 100<150 250> 300 100<250 350> 500 100<50 150> 600 100<150 350>
VStem: 50 100<500 600> 150 200<300 400 600 700> 150 100<0 100 200 300> 350 100<400 600>
LayerCount: 2
Fore
SplineSet
50 500 m 1xe8
 50 600 l 1
 150 600 l 1
 150 500 l 1
 50 500 l 1xe8
150 0 m 1xc2
 150 100 l 1
 250 100 l 1
 250 0 l 1
 150 0 l 1xc2
150 200 m 1
 150 400 l 1
 350 400 l 1
 350 300 l 1xc4
 250 300 l 1
 250 200 l 5
 150 200 l 1
150 600 m 1xe8
 150 700 l 1
 350 700 l 1
 350 600 l 1xd4
 150 600 l 1xe8
350 400 m 1
 350 600 l 1xd4
 450 600 l 1
 450 400 l 1xd1
 350 400 l 1
EndSplineSet
EndChar

StartChar: at
Encoding: 64 64 71
Width: 800
VWidth: 0
Flags: W
HStem: 0 100<150 650> 200 100<350 450 550 650> 300 100<250 350> 400 100<350 450> 600 100<150 650>
VStem: 50 100<100 600> 250 100<300 400> 450 100<300 400> 650 100<300 600>
LayerCount: 2
Fore
SplineSet
50 100 m 1xdf80
 50 600 l 1
 150 600 l 1
 150 700 l 1
 650 700 l 1
 650 600 l 1
 750 600 l 1
 750 200 l 1
 350 200 l 1
 350 300 l 1
 450 300 l 1
 450 400 l 1xdf80
 350 400 l 1xaf80
 350 300 l 1xcf80
 250 300 l 1
 250 400 l 1
 350 400 l 1xaf80
 350 500 l 1
 550 500 l 5
 550 300 l 5
 650 300 l 1
 650 600 l 1
 150 600 l 1
 150 100 l 1
 650 100 l 1
 650 0 l 1
 150 0 l 1
 150 100 l 1
 50 100 l 1xdf80
EndSplineSet
EndChar

StartChar: braceleft
Encoding: 123 123 72
Width: 400
VWidth: 0
Flags: W
HStem: 0 100<250 350> 300 100<50 150> 600 100<250 350>
VStem: 150 200<0 100 600 700> 150 100<100 300 400 600>
CounterMasks: 1 e0
LayerCount: 2
Fore
SplineSet
50 300 m 1xe8
 50 400 l 1
 150 400 l 1xe8
 150 700 l 1
 350 700 l 5
 350 600 l 5xf0
 250 600 l 1
 250 100 l 1xe8
 350 100 l 5
 350 0 l 5
 150 0 l 1xf0
 150 300 l 1
 50 300 l 1xe8
EndSplineSet
EndChar

StartChar: braceright
Encoding: 125 125 73
Width: 400
VWidth: 0
Flags: WO
HStem: 0 100<50 150> 300 100<250 350> 600 100<50 150>
VStem: 50 200<0 100 600 700> 150 100<100 300 400 600>
CounterMasks: 1 e0
LayerCount: 2
Fore
SplineSet
50 0 m 1xf0
 50 100 l 1xf0
 150 100 l 5
 150 600 l 5xe8
 50 600 l 1
 50 700 l 1
 250 700 l 5xf0
 250 400 l 5
 350 400 l 5
 350 300 l 5
 250 300 l 5xe8
 250 0 l 5
 50 0 l 1xf0
EndSplineSet
EndChar

StartChar: l
Encoding: 108 108 74
Width: 200
VWidth: 0
Flags: W
HStem: 0 21G<50 150> 680 20G<50 150>
VStem: 50 100<0 700>
LayerCount: 2
Fore
SplineSet
50 0 m 5
 50 700 l 5
 150 700 l 1
 150 0 l 1
 50 0 l 5
EndSplineSet
EndChar

StartChar: o
Encoding: 111 111 75
Width: 600
VWidth: 0
Flags: W
HStem: 0 100<150 450> 100 300<50 150 450 550> 400 100<150 450>
VStem: 50 100<100 400> 150 300<0 100 400 500> 450 100<100 400>
LayerCount: 2
Fore
SplineSet
50 100 m 1x50
 50 400 l 5
 150 400 l 5x50
 150 100 l 1x90
 50 100 l 1x50
150 0 m 1x88
 150 100 l 1x90
 450 100 l 1
 450 0 l 1
 150 0 l 1x88
150 400 m 5x50
 150 500 l 5
 450 500 l 5x28
 450 400 l 5x48
 150 400 l 5x50
450 100 m 1x88
 450 400 l 5x48
 550 400 l 5
 550 100 l 1x44
 450 100 l 1x88
EndSplineSet
EndChar

StartChar: b
Encoding: 98 98 76
Width: 600
VWidth: 0
Flags: W
HStem: 0 100<150 450> 400 100<150 450> 680 20G<50 150>
VStem: 50 100<100 400 500 700> 450 100<100 400>
LayerCount: 2
Fore
SplineSet
50 100 m 5
 50 700 l 5
 150 700 l 1
 150 500 l 1
 450 500 l 1
 450 400 l 1
 150 400 l 1
 150 100 l 1
 450 100 l 1
 450 0 l 1
 150 0 l 1
 150 100 l 1
 50 100 l 5
450 100 m 1
 450 400 l 1
 550 400 l 1
 550 100 l 1
 450 100 l 1
EndSplineSet
EndChar

StartChar: d
Encoding: 100 100 77
Width: 600
VWidth: 0
Flags: W
HStem: 0 100<150 450> 400 100<150 450> 680 20G<450 550>
VStem: 50 100<100 400> 450 100<100 400 500 700>
LayerCount: 2
Fore
SplineSet
50 100 m 1
 50 400 l 1
 150 400 l 1
 150 100 l 1
 50 100 l 1
150 0 m 1
 150 100 l 1
 450 100 l 1
 450 400 l 1
 150 400 l 1
 150 500 l 1
 450 500 l 1
 450 700 l 1
 550 700 l 5
 550 100 l 5
 450 100 l 1
 450 0 l 1
 150 0 l 1
EndSplineSet
EndChar

StartChar: p
Encoding: 112 112 78
Width: 600
VWidth: 0
Flags: W
HStem: -200 21G<50 150> 0 100<150 450> 400 100<150 450>
VStem: 50 100<-200 0 100 400> 450 100<100 400>
LayerCount: 2
Fore
SplineSet
50 -200 m 5
 50 400 l 5
 150 400 l 5
 150 500 l 5
 450 500 l 5
 450 400 l 5
 150 400 l 5
 150 100 l 5
 450 100 l 5
 450 0 l 5
 150 0 l 5
 150 -200 l 5
 50 -200 l 5
450 100 m 5
 450 400 l 5
 550 400 l 5
 550 100 l 5
 450 100 l 5
EndSplineSet
EndChar

StartChar: q
Encoding: 113 113 79
Width: 600
VWidth: 0
Flags: W
HStem: -200 21G<450 550> 0 100<150 450> 400 100<150 450>
VStem: 50 100<100 400> 450 100<-200 0 100 400>
LayerCount: 2
Fore
SplineSet
50 100 m 1
 50 400 l 1
 150 400 l 1
 150 100 l 1
 50 100 l 1
150 0 m 1
 150 100 l 1
 450 100 l 1
 450 400 l 1
 150 400 l 1
 150 500 l 1
 450 500 l 1
 450 400 l 1
 550 400 l 1
 550 -200 l 1
 450 -200 l 1
 450 0 l 5
 150 0 l 1
EndSplineSet
EndChar

StartChar: g
Encoding: 103 103 80
Width: 600
VWidth: 0
Flags: W
HStem: -300 100<150 450> -200 100<50 150> 0 100<150 450> 400 100<150 450>
VStem: 50 100<-200 -100 100 400> 150 300<-300 -200 400 500> 450 100<-200 0 100 400>
LayerCount: 2
Fore
SplineSet
50 100 m 1xb8
 50 400 l 1
 150 400 l 1xb8
 150 500 l 1
 450 500 l 1
 450 400 l 1xb4
 550 400 l 1
 550 -200 l 1x72
 450 -200 l 1xb4
 450 0 l 1xb2
 150 0 l 1xb4
 150 100 l 1
 450 100 l 1xba
 450 400 l 1xb4
 150 400 l 1
 150 100 l 1
 50 100 l 1xb8
50 -100 m 1x78
 150 -100 l 1x78
 150 -200 l 1xb8
 450 -200 l 1
 450 -300 l 1
 150 -300 l 1xb4
 150 -200 l 1xb8
 50 -200 l 1
 50 -100 l 1x78
EndSplineSet
EndChar

StartChar: e
Encoding: 101 101 81
Width: 600
VWidth: 0
Flags: W
HStem: 0 100<150 550> 200 100<150 450> 300 100<450 550> 400 100<150 450>
VStem: 50 100<100 200 300 400> 450 100<300 400>
LayerCount: 2
Fore
SplineSet
50 100 m 1xcc
 50 400 l 1
 150 400 l 1
 150 500 l 1
 450 500 l 1xdc
 450 400 l 1
 550 400 l 1
 550 300 l 1xac
 450 300 l 1
 450 200 l 1
 150 200 l 1
 150 100 l 1
 550 100 l 5
 550 0 l 5
 150 0 l 1
 150 100 l 1
 50 100 l 1xcc
150 300 m 1
 450 300 l 1xdc
 450 400 l 1xac
 150 400 l 1
 150 300 l 1
EndSplineSet
EndChar

StartChar: c
Encoding: 99 99 82
Width: 600
VWidth: 0
Flags: W
HStem: 0 100<150 450> 100 100<450 550> 300 100<450 550> 400 100<150 450>
VStem: 50 100<100 400> 150 300<0 100 400 500> 450 100<100 200 300 400>
LayerCount: 2
Fore
SplineSet
50 100 m 1x48
 50 400 l 1
 150 400 l 1
 150 100 l 1x98
 50 100 l 1x48
150 0 m 1x84
 150 100 l 1x88
 450 100 l 5
 450 0 l 5
 150 0 l 1x84
150 400 m 1x18
 150 500 l 1
 450 500 l 5x14
 450 400 l 5x24
 150 400 l 1x18
450 100 m 5x84
 450 200 l 5
 550 200 l 5
 550 100 l 5x42
 450 100 l 5x84
450 300 m 5x22
 450 400 l 5x24
 550 400 l 5
 550 300 l 5
 450 300 l 5x22
EndSplineSet
EndChar

StartChar: a
Encoding: 97 97 83
Width: 600
VWidth: 0
Flags: W
HStem: 0 100<150 350> 100 100<350 450> 400 100<150 450>
VStem: 50 100<100 400> 450 100<0 100 200 400>
LayerCount: 2
Fore
SplineSet
50 100 m 1x78
 50 400 l 1
 150 400 l 1
 150 500 l 1
 450 500 l 5
 450 400 l 5
 150 400 l 1
 150 100 l 1
 350 100 l 5
 350 0 l 5
 150 0 l 1
 150 100 l 1xb8
 50 100 l 1x78
350 100 m 5
 350 200 l 5
 450 200 l 5x78
 450 400 l 5
 550 400 l 5
 550 0 l 5
 450 0 l 5xb8
 450 100 l 5x78
 350 100 l 5
EndSplineSet
EndChar

StartChar: n
Encoding: 110 110 84
Width: 600
VWidth: 0
Flags: W
HStem: 0 21G<50 150 450 550> 300 100<150 250> 400 100<250 450>
VStem: 50 100<0 300 400 500> 450 100<0 400>
LayerCount: 2
Fore
SplineSet
50 0 m 1xd8
 50 500 l 1
 150 500 l 1xb8
 150 400 l 1
 250 400 l 1xd8
 250 500 l 1
 450 500 l 1
 450 400 l 1
 550 400 l 1
 550 0 l 1
 450 0 l 1
 450 400 l 1xb8
 250 400 l 1
 250 300 l 1
 150 300 l 1
 150 0 l 1
 50 0 l 1xd8
EndSplineSet
EndChar

StartChar: m
Encoding: 109 109 85
Width: 900
VWidth: 0
Flags: W
HStem: 0 21G<50 150 450 550 750 850> 300 100<150 250> 400 100<250 450 550 750>
VStem: 50 100<0 300 400 500> 450 100<0 400> 750 100<0 400>
LayerCount: 2
Fore
SplineSet
50 0 m 1xdc
 50 500 l 1
 150 500 l 1xbc
 150 400 l 1
 250 400 l 1xdc
 250 500 l 1
 450 500 l 5
 450 400 l 5
 550 400 l 5
 550 0 l 5
 450 0 l 5
 450 400 l 5xbc
 250 400 l 1
 250 300 l 1
 150 300 l 1
 150 0 l 1
 50 0 l 1xdc
550 400 m 5
 550 500 l 5
 750 500 l 5
 750 400 l 5
 550 400 l 5
750 0 m 5
 750 400 l 5
 850 400 l 5
 850 0 l 5
 750 0 l 5
EndSplineSet
EndChar

StartChar: u
Encoding: 117 117 86
Width: 600
VWidth: 0
Flags: W
HStem: 0 100<150 350> 100 100<350 450> 480 20G<50 150 450 550>
VStem: 50 100<100 500> 450 100<0 100 200 500>
LayerCount: 2
Fore
SplineSet
50 100 m 1x78
 50 500 l 1
 150 500 l 1
 150 100 l 1
 350 100 l 1xb8
 350 200 l 1
 450 200 l 1x78
 450 500 l 1
 550 500 l 1
 550 0 l 1
 450 0 l 1xb8
 450 100 l 1x78
 350 100 l 1
 350 0 l 1
 150 0 l 1
 150 100 l 1xb8
 50 100 l 1x78
EndSplineSet
EndChar

StartChar: y
Encoding: 121 121 87
Width: 600
VWidth: 0
Flags: W
HStem: -300 100<150 450> -200 100<50 150> 0 100<150 350> 100 100<350 450> 480 20G<50 150 450 550>
VStem: 50 100<-200 -100 100 500> 450 100<-200 100 200 500>
LayerCount: 2
Fore
SplineSet
50 100 m 1x1e
 50 500 l 1
 150 500 l 1
 150 100 l 1x2e
 50 100 l 1x1e
50 -100 m 1x4e
 150 -100 l 1x4e
 150 -200 l 1x8e
 50 -200 l 1
 50 -100 l 1x4e
150 0 m 1x2e
 150 100 l 1
 350 100 l 1
 350 0 l 1
 150 0 l 1x2e
150 -200 m 1x8e
 450 -200 l 1
 450 -300 l 1
 150 -300 l 1
 150 -200 l 1x8e
350 100 m 1x2e
 350 200 l 1
 450 200 l 1
 450 500 l 1
 550 500 l 1
 550 -200 l 1x5e
 450 -200 l 1
 450 100 l 1x9e
 350 100 l 1x2e
EndSplineSet
EndChar

StartChar: h
Encoding: 104 104 88
Width: 600
VWidth: 0
Flags: W
HStem: 0 21G<50 150 450 550> 300 100<150 250> 400 100<250 450> 680 20G<50 150>
VStem: 50 100<0 300 400 700> 450 100<0 400>
LayerCount: 2
Fore
SplineSet
50 0 m 1xdc
 50 700 l 1
 150 700 l 1
 150 400 l 1
 250 400 l 1xdc
 250 500 l 1
 450 500 l 1
 450 400 l 1
 550 400 l 1
 550 0 l 1
 450 0 l 1
 450 400 l 1xbc
 250 400 l 1
 250 300 l 1
 150 300 l 1
 150 0 l 1
 50 0 l 1xdc
EndSplineSet
EndChar

StartChar: i
Encoding: 105 105 89
Width: 200
VWidth: 0
Flags: W
HStem: 0 21G<50 150> 480 20G<50 150> 600 100<50 150>
VStem: 50 100<0 500 600 700>
LayerCount: 2
Fore
SplineSet
50 0 m 1
 50 500 l 1
 150 500 l 1
 150 0 l 1
 50 0 l 1
50 600 m 5
 50 700 l 5
 150 700 l 5
 150 600 l 5
 50 600 l 5
EndSplineSet
EndChar

StartChar: j
Encoding: 106 106 90
Width: 300
VWidth: 0
Flags: W
HStem: -100 100<50 150> 480 20G<150 250> 600 100<150 250>
VStem: 150 100<0 500 600 700>
LayerCount: 2
Fore
SplineSet
50 0 m 1
 150 0 l 1
 150 500 l 1
 250 500 l 1
 250 0 l 1
 250 -100 l 5
 50 -100 l 5
 50 0 l 1
150 600 m 1
 150 700 l 1
 250 700 l 1
 250 600 l 1
 150 600 l 1
EndSplineSet
EndChar

StartChar: k
Encoding: 107 107 91
Width: 500
VWidth: 0
Flags: W
HStem: 0 100<350 450> 100 100<250 350> 200 100<150 250> 300 100<250 350> 400 100<350 450> 680 20G<50 150>
VStem: 50 100<0 200 300 700> 250 100<100 200 300 400> 350 100<0 100 400 500>
LayerCount: 2
Fore
SplineSet
50 0 m 1xa7
 50 700 l 1
 150 700 l 1
 150 300 l 1
 250 300 l 5xa7
 250 200 l 5
 350 200 l 5x47
 350 100 l 5x87
 250 100 l 5
 250 200 l 5x47
 150 200 l 1
 150 0 l 1
 50 0 l 1xa7
250 300 m 5
 250 400 l 5
 350 400 l 5
 350 300 l 5x17
 250 300 l 5
350 0 m 5x8680
 350 100 l 5x87
 450 100 l 5
 450 0 l 5
 350 0 l 5x8680
350 400 m 5x17
 350 500 l 5
 450 500 l 5
 450 400 l 5x0e80
 350 400 l 5x17
EndSplineSet
EndChar

StartChar: r
Encoding: 114 114 92
Width: 500
VWidth: 0
Flags: W
HStem: 0 21G<50 150> 300 100<150 250> 400 100<250 450>
VStem: 50 100<0 300 400 500>
LayerCount: 2
Fore
SplineSet
50 0 m 1xd0
 50 500 l 1
 150 500 l 1xb0
 150 400 l 1
 250 400 l 1xd0
 250 500 l 1
 450 500 l 1
 450 400 l 5xb0
 250 400 l 1
 250 300 l 1
 150 300 l 1
 150 0 l 1
 50 0 l 1xd0
EndSplineSet
EndChar

StartChar: f
Encoding: 102 102 93
Width: 500
VWidth: 0
Flags: W
HStem: 0 21G<150 250> 300 100<50 150 250 450> 600 100<250 450>
VStem: 150 100<0 300 400 600>
LayerCount: 2
Fore
SplineSet
50 300 m 1
 50 400 l 1
 150 400 l 1
 150 600 l 1
 250 600 l 1
 250 700 l 1
 450 700 l 1
 450 600 l 1
 250 600 l 1
 250 400 l 1
 450 400 l 1
 450 300 l 1
 250 300 l 1
 250 0 l 1
 150 0 l 1
 150 300 l 1
 50 300 l 1
EndSplineSet
EndChar

StartChar: t
Encoding: 116 116 94
Width: 410
VWidth: 0
Flags: W
HStem: 0 21G<150 250> 400 100<50 150 250 360> 680 20G<150 250>
VStem: 150 100<0 400 500 700>
LayerCount: 2
Fore
SplineSet
50 400 m 1
 50 500 l 1
 150 500 l 1
 150 700 l 1
 250 700 l 1
 250 500 l 1
 360 500 l 5
 360 400 l 5
 250 400 l 1
 250 0 l 1
 150 0 l 1
 150 400 l 1
 50 400 l 1
EndSplineSet
EndChar

StartChar: x
Encoding: 120 120 95
Width: 600
VWidth: 0
Flags: W
HStem: 0 100<50 150 450 550> 100 100<150 250 350 450> 200 100<250 350> 300 100<150 250 350 450> 400 100<50 150 450 550>
VStem: 50 100<0 100 400 500> 150 100<100 200 300 400> 250 100<200 300> 350 100<100 200 300 400> 450 100<0 100 400 500>
LayerCount: 2
Fore
SplineSet
50 0 m 1x84
 50 100 l 1
 150 100 l 1
 150 0 l 1
 50 0 l 1x84
50 400 m 1x0c
 50 500 l 5
 150 500 l 5x0c
 150 400 l 1x14
 250 400 l 1x12
 250 300 l 1x22
 150 300 l 1x12
 150 400 l 1x14
 50 400 l 1x0c
150 100 m 1x84
 150 200 l 1
 250 200 l 1
 250 100 l 1x42
 150 100 l 1x84
250 200 m 1
 250 300 l 1x22
 350 300 l 1x21
 350 200 l 1x41
 250 200 l 1
350 100 m 1x4080
 350 200 l 1x41
 450 200 l 1x4080
 450 100 l 1x8080
 350 100 l 1x4080
350 300 m 1x21
 350 400 l 1
 450 400 l 1
 450 300 l 1x1080
 350 300 l 1x21
450 0 m 1x8040
 450 100 l 1x8080
 550 100 l 1
 550 0 l 1
 450 0 l 1x8040
450 400 m 1x1080
 450 500 l 5
 550 500 l 5
 550 400 l 1x0840
 450 400 l 1x1080
EndSplineSet
EndChar

StartChar: z
Encoding: 122 122 96
Width: 600
VWidth: 0
Flags: W
HStem: 0 100<50 150 250 550> 200 100<250 350> 400 100<50 350 450 550>
VStem: 150 100<100 200> 250 100<200 300>
CounterMasks: 1 e0
LayerCount: 2
Fore
SplineSet
50 0 m 1xf0
 50 100 l 1
 150 100 l 1
 150 200 l 1
 250 200 l 1xf0
 250 300 l 1
 350 300 l 1
 350 200 l 1xe8
 250 200 l 1
 250 100 l 1
 550 100 l 1
 550 0 l 1
 50 0 l 1xf0
50 400 m 1
 50 500 l 1
 550 500 l 1
 550 400 l 1
 450 400 l 1
 450 300 l 1
 350 300 l 1
 350 400 l 1xe8
 50 400 l 1
EndSplineSet
EndChar

StartChar: s
Encoding: 115 115 97
Width: 600
VWidth: 0
Flags: W
HStem: 0 100<50 450> 100 100<450 550> 200 100<150 450> 300 100<50 150> 400 100<150 550>
VStem: 50 100<300 400> 450 100<100 200>
LayerCount: 2
Fore
SplineSet
50 0 m 1x86
 50 100 l 1
 450 100 l 1
 450 0 l 1
 50 0 l 1x86
50 300 m 1x16
 50 400 l 1
 150 400 l 1x16
 150 300 l 1x26
 50 300 l 1x16
150 200 m 1x26
 150 300 l 1
 450 300 l 1x26
 450 200 l 1x46
 150 200 l 1x26
150 400 m 1x16
 150 500 l 1
 550 500 l 1
 550 400 l 1x0e
 150 400 l 1x16
450 100 m 1x86
 450 200 l 1
 550 200 l 1
 550 100 l 1x46
 450 100 l 1x86
EndSplineSet
EndChar

StartChar: v
Encoding: 118 118 98
Width: 600
VWidth: 0
Flags: W
HStem: 0 100<250 350> 100 200<150 250 350 450> 300 200<50 150 450 550>
VStem: 50 100<300 500> 150 100<100 300> 250 100<0 100> 350 100<100 300> 450 100<300 500>
LayerCount: 2
Fore
SplineSet
50 300 m 1x30
 50 500 l 1
 150 500 l 1x30
 150 300 l 1x50
 50 300 l 1x30
150 100 m 5x48
 150 300 l 1x50
 250 300 l 1x48
 250 100 l 5x88
 150 100 l 5x48
250 0 m 1x84
 250 100 l 5x88
 350 100 l 5x84
 350 300 l 1
 450 300 l 1
 450 100 l 5x42
 350 100 l 5
 350 0 l 1
 250 0 l 1x84
450 300 m 1x42
 450 500 l 1
 550 500 l 1
 550 300 l 1x21
 450 300 l 1x42
EndSplineSet
EndChar

StartChar: w
Encoding: 119 119 99
Width: 1000
VWidth: 0
Flags: W
HStem: 0 100<250 350 650 750> 100 200<150 250 350 450 550 650 750 850> 300 200<50 150 450 550 850 950>
VStem: 50 100<300 500> 150 100<100 300> 250 100<0 100> 350 100<100 300> 450 100<300 500> 550 100<100 300> 650 100<0 100> 750 100<100 300> 850 100<300 500>
LayerCount: 2
Fore
SplineSet
50 300 m 1x30
 50 500 l 1
 150 500 l 1x30
 150 300 l 1x50
 250 300 l 1x48
 250 100 l 1x88
 350 100 l 5
 350 0 l 1
 250 0 l 1x84
 250 100 l 1x88
 150 100 l 1x48
 150 300 l 1x50
 50 300 l 1x30
350 100 m 1x84
 350 300 l 1
 450 300 l 1
 450 100 l 1x42
 350 100 l 1x84
450 300 m 1
 450 500 l 1
 550 500 l 1x21
 550 300 l 1x41
 450 300 l 1
550 100 m 1x4080
 550 300 l 1x41
 650 300 l 1x4080
 650 100 l 1x8080
 550 100 l 1x4080
650 0 m 1x8040
 650 100 l 1x8080
 750 100 l 1x8040
 750 300 l 1
 850 300 l 1
 850 100 l 1x4020
 750 100 l 1
 750 0 l 1
 650 0 l 1x8040
850 300 m 1x4020
 850 500 l 1
 950 500 l 1
 950 300 l 1x2010
 850 300 l 1x4020
EndSplineSet
EndChar

StartChar: asciitilde
Encoding: 126 126 100
Width: 500
VWidth: 0
Flags: W
HStem: 500 100<250 450> 600 100<50 250>
LayerCount: 2
Fore
SplineSet
50 600 m 1x40
 50 700 l 1
 250 700 l 1x40
 250 600 l 1
 450 600 l 1
 450 500 l 1
 250 500 l 1
 250 600 l 1x80
 50 600 l 1x40
EndSplineSet
EndChar
